<svg xmlns="http://www.w3.org/2000/svg" version="1.1" xmlns:xlink="http://www.w3.org/1999/xlink" xmlns:svgjs="http://svgjs.com/svgjs" width="1400" height="560" preserveAspectRatio="none" viewBox="0 0 1400 560"><g mask="url(&quot;#SvgjsMask1044&quot;)" fill="none"><rect width="1400" height="560" x="0" y="0" fill="#0e2a47"></rect><path d="M121.98 328.84L186.94 366.34L186.94 441.34L121.98 478.84L57.03 441.34L57.03 366.34zM121.98 553.84L186.94 591.34L186.94 666.34L121.98 703.84L57.03 666.34L57.03 591.34zM186.94 216.34L251.89 253.84L251.89 328.84L186.94 366.34L121.98 328.84L121.98 253.84zM251.89 553.84L316.85 591.34L316.85 666.34L251.89 703.84L186.94 666.34L186.94 591.34zM316.85 -8.66L381.8 28.84L381.8 103.84L316.85 141.34L251.89 103.84L251.89 28.84zM316.85 216.34L381.8 253.84L381.8 328.84L316.85 366.34L251.89 328.84L251.89 253.84zM381.8 553.84L446.75 591.34L446.75 666.34L381.8 703.84L316.85 666.34L316.85 591.34zM446.75 -8.66L511.71 28.84L511.71 103.84L446.75 141.34L381.8 103.84L381.8 28.84zM511.71 553.84L576.66 591.34L576.66 666.34L511.71 703.84L446.75 666.34L446.75 591.34zM576.66 -8.66L641.61 28.84L641.61 103.84L576.66 141.34L511.71 103.84L511.71 28.84zM641.61 103.84L706.57 141.34L706.57 216.34L641.61 253.84L576.66 216.34L576.66 141.34zM641.61 328.84L706.57 366.34L706.57 441.34L641.61 478.84L576.66 441.34L576.66 366.34zM576.66 441.34L641.61 478.84L641.61 553.84L576.66 591.34L511.71 553.84L511.71 478.84zM901.43 103.84L966.38 141.34L966.38 216.34L901.43 253.84L836.47 216.34L836.47 141.34zM1031.34 328.84L1096.29 366.34L1096.29 441.34L1031.34 478.84L966.38 441.34L966.38 366.34zM1161.24 103.84L1226.2 141.34L1226.2 216.34L1161.24 253.84L1096.29 216.34L1096.29 141.34zM1226.2 -8.66L1291.15 28.84L1291.15 103.84L1226.2 141.34L1161.24 103.84L1161.24 28.84zM1291.15 553.84L1356.1 591.34L1356.1 666.34L1291.15 703.84L1226.2 666.34L1226.2 591.34z" stroke="#03305d" stroke-width="2"></path><path d="M114.48 328.84 a7.5 7.5 0 1 0 15 0 a7.5 7.5 0 1 0 -15 0zM179.44 366.34 a7.5 7.5 0 1 0 15 0 a7.5 7.5 0 1 0 -15 0zM179.44 441.34 a7.5 7.5 0 1 0 15 0 a7.5 7.5 0 1 0 -15 0zM114.48 478.84 a7.5 7.5 0 1 0 15 0 a7.5 7.5 0 1 0 -15 0zM49.53 441.34 a7.5 7.5 0 1 0 15 0 a7.5 7.5 0 1 0 -15 0zM49.53 366.34 a7.5 7.5 0 1 0 15 0 a7.5 7.5 0 1 0 -15 0zM114.48 553.84 a7.5 7.5 0 1 0 15 0 a7.5 7.5 0 1 0 -15 0zM179.44 591.34 a7.5 7.5 0 1 0 15 0 a7.5 7.5 0 1 0 -15 0zM179.44 666.34 a7.5 7.5 0 1 0 15 0 a7.5 7.5 0 1 0 -15 0zM114.48 703.84 a7.5 7.5 0 1 0 15 0 a7.5 7.5 0 1 0 -15 0zM49.53 666.34 a7.5 7.5 0 1 0 15 0 a7.5 7.5 0 1 0 -15 0zM49.53 591.34 a7.5 7.5 0 1 0 15 0 a7.5 7.5 0 1 0 -15 0zM179.44 216.34 a7.5 7.5 0 1 0 15 0 a7.5 7.5 0 1 0 -15 0zM244.39 253.84 a7.5 7.5 0 1 0 15 0 a7.5 7.5 0 1 0 -15 0zM244.39 328.84 a7.5 7.5 0 1 0 15 0 a7.5 7.5 0 1 0 -15 0zM114.48 253.84 a7.5 7.5 0 1 0 15 0 a7.5 7.5 0 1 0 -15 0zM244.39 553.84 a7.5 7.5 0 1 0 15 0 a7.5 7.5 0 1 0 -15 0zM309.35 591.34 a7.5 7.5 0 1 0 15 0 a7.5 7.5 0 1 0 -15 0zM309.35 666.34 a7.5 7.5 0 1 0 15 0 a7.5 7.5 0 1 0 -15 0zM244.39 703.84 a7.5 7.5 0 1 0 15 0 a7.5 7.5 0 1 0 -15 0zM309.35 -8.66 a7.5 7.5 0 1 0 15 0 a7.5 7.5 0 1 0 -15 0zM374.3 28.84 a7.5 7.5 0 1 0 15 0 a7.5 7.5 0 1 0 -15 0zM374.3 103.84 a7.5 7.5 0 1 0 15 0 a7.5 7.5 0 1 0 -15 0zM309.35 141.34 a7.5 7.5 0 1 0 15 0 a7.5 7.5 0 1 0 -15 0zM244.39 103.84 a7.5 7.5 0 1 0 15 0 a7.5 7.5 0 1 0 -15 0zM244.39 28.84 a7.5 7.5 0 1 0 15 0 a7.5 7.5 0 1 0 -15 0zM309.35 216.34 a7.5 7.5 0 1 0 15 0 a7.5 7.5 0 1 0 -15 0zM374.3 253.84 a7.5 7.5 0 1 0 15 0 a7.5 7.5 0 1 0 -15 0zM374.3 328.84 a7.5 7.5 0 1 0 15 0 a7.5 7.5 0 1 0 -15 0zM309.35 366.34 a7.5 7.5 0 1 0 15 0 a7.5 7.5 0 1 0 -15 0zM374.3 553.84 a7.5 7.5 0 1 0 15 0 a7.5 7.5 0 1 0 -15 0zM439.25 591.34 a7.5 7.5 0 1 0 15 0 a7.5 7.5 0 1 0 -15 0zM439.25 666.34 a7.5 7.5 0 1 0 15 0 a7.5 7.5 0 1 0 -15 0zM374.3 703.84 a7.5 7.5 0 1 0 15 0 a7.5 7.5 0 1 0 -15 0zM439.25 -8.66 a7.5 7.5 0 1 0 15 0 a7.5 7.5 0 1 0 -15 0zM504.21 28.84 a7.5 7.5 0 1 0 15 0 a7.5 7.5 0 1 0 -15 0zM504.21 103.84 a7.5 7.5 0 1 0 15 0 a7.5 7.5 0 1 0 -15 0zM439.25 141.34 a7.5 7.5 0 1 0 15 0 a7.5 7.5 0 1 0 -15 0zM504.21 553.84 a7.5 7.5 0 1 0 15 0 a7.5 7.5 0 1 0 -15 0zM569.16 591.34 a7.5 7.5 0 1 0 15 0 a7.5 7.5 0 1 0 -15 0zM569.16 666.34 a7.5 7.5 0 1 0 15 0 a7.5 7.5 0 1 0 -15 0zM504.21 703.84 a7.5 7.5 0 1 0 15 0 a7.5 7.5 0 1 0 -15 0zM569.16 -8.66 a7.5 7.5 0 1 0 15 0 a7.5 7.5 0 1 0 -15 0zM634.11 28.84 a7.5 7.5 0 1 0 15 0 a7.5 7.5 0 1 0 -15 0zM634.11 103.84 a7.5 7.5 0 1 0 15 0 a7.5 7.5 0 1 0 -15 0zM569.16 141.34 a7.5 7.5 0 1 0 15 0 a7.5 7.5 0 1 0 -15 0zM699.07 141.34 a7.5 7.5 0 1 0 15 0 a7.5 7.5 0 1 0 -15 0zM699.07 216.34 a7.5 7.5 0 1 0 15 0 a7.5 7.5 0 1 0 -15 0zM634.11 253.84 a7.5 7.5 0 1 0 15 0 a7.5 7.5 0 1 0 -15 0zM569.16 216.34 a7.5 7.5 0 1 0 15 0 a7.5 7.5 0 1 0 -15 0zM634.11 328.84 a7.5 7.5 0 1 0 15 0 a7.5 7.5 0 1 0 -15 0zM699.07 366.34 a7.5 7.5 0 1 0 15 0 a7.5 7.5 0 1 0 -15 0zM699.07 441.34 a7.5 7.5 0 1 0 15 0 a7.5 7.5 0 1 0 -15 0zM634.11 478.84 a7.5 7.5 0 1 0 15 0 a7.5 7.5 0 1 0 -15 0zM569.16 441.34 a7.5 7.5 0 1 0 15 0 a7.5 7.5 0 1 0 -15 0zM569.16 366.34 a7.5 7.5 0 1 0 15 0 a7.5 7.5 0 1 0 -15 0zM634.11 553.84 a7.5 7.5 0 1 0 15 0 a7.5 7.5 0 1 0 -15 0zM504.21 478.84 a7.5 7.5 0 1 0 15 0 a7.5 7.5 0 1 0 -15 0zM893.93 103.84 a7.5 7.5 0 1 0 15 0 a7.5 7.5 0 1 0 -15 0zM958.88 141.34 a7.5 7.5 0 1 0 15 0 a7.5 7.5 0 1 0 -15 0zM958.88 216.34 a7.5 7.5 0 1 0 15 0 a7.5 7.5 0 1 0 -15 0zM893.93 253.84 a7.5 7.5 0 1 0 15 0 a7.5 7.5 0 1 0 -15 0zM828.97 216.34 a7.5 7.5 0 1 0 15 0 a7.5 7.5 0 1 0 -15 0zM828.97 141.34 a7.5 7.5 0 1 0 15 0 a7.5 7.5 0 1 0 -15 0zM1023.84 328.84 a7.5 7.5 0 1 0 15 0 a7.5 7.5 0 1 0 -15 0zM1088.79 366.34 a7.5 7.5 0 1 0 15 0 a7.5 7.5 0 1 0 -15 0zM1088.79 441.34 a7.5 7.5 0 1 0 15 0 a7.5 7.5 0 1 0 -15 0zM1023.84 478.84 a7.5 7.5 0 1 0 15 0 a7.5 7.5 0 1 0 -15 0zM958.88 441.34 a7.5 7.5 0 1 0 15 0 a7.5 7.5 0 1 0 -15 0zM958.88 366.34 a7.5 7.5 0 1 0 15 0 a7.5 7.5 0 1 0 -15 0zM1153.74 103.84 a7.5 7.5 0 1 0 15 0 a7.5 7.5 0 1 0 -15 0zM1218.7 141.34 a7.5 7.5 0 1 0 15 0 a7.5 7.5 0 1 0 -15 0zM1218.7 216.34 a7.5 7.5 0 1 0 15 0 a7.5 7.5 0 1 0 -15 0zM1153.74 253.84 a7.5 7.5 0 1 0 15 0 a7.5 7.5 0 1 0 -15 0zM1088.79 216.34 a7.5 7.5 0 1 0 15 0 a7.5 7.5 0 1 0 -15 0zM1088.79 141.34 a7.5 7.5 0 1 0 15 0 a7.5 7.5 0 1 0 -15 0zM1218.7 -8.66 a7.5 7.5 0 1 0 15 0 a7.5 7.5 0 1 0 -15 0zM1283.65 28.84 a7.5 7.5 0 1 0 15 0 a7.5 7.5 0 1 0 -15 0zM1283.65 103.84 a7.5 7.5 0 1 0 15 0 a7.5 7.5 0 1 0 -15 0zM1153.74 28.84 a7.5 7.5 0 1 0 15 0 a7.5 7.5 0 1 0 -15 0zM1283.65 553.84 a7.5 7.5 0 1 0 15 0 a7.5 7.5 0 1 0 -15 0zM1348.6 591.34 a7.5 7.5 0 1 0 15 0 a7.5 7.5 0 1 0 -15 0zM1348.6 666.34 a7.5 7.5 0 1 0 15 0 a7.5 7.5 0 1 0 -15 0zM1283.65 703.84 a7.5 7.5 0 1 0 15 0 a7.5 7.5 0 1 0 -15 0zM1218.7 666.34 a7.5 7.5 0 1 0 15 0 a7.5 7.5 0 1 0 -15 0zM1218.7 591.34 a7.5 7.5 0 1 0 15 0 a7.5 7.5 0 1 0 -15 0z" fill="#03305d"></path><path d="M78.1 523.08L121.41 548.08L121.41 598.08L78.1 623.08L34.8 598.08L34.8 548.08zM164.71 523.08L208.01 548.08L208.01 598.08L164.71 623.08L121.41 598.08L121.41 548.08zM251.31 223.08L294.62 248.08L294.62 298.08L251.31 323.08L208.01 298.08L208.01 248.08zM381.22 148.08L424.52 173.08L424.52 223.08L381.22 248.08L337.92 223.08L337.92 173.08zM424.52 223.08L467.83 248.08L467.83 298.08L424.52 323.08L381.22 298.08L381.22 248.08zM511.13 73.08L554.43 98.08L554.43 148.08L511.13 173.08L467.83 148.08L467.83 98.08zM554.43 148.08L597.73 173.08L597.73 223.08L554.43 248.08L511.13 223.08L511.13 173.08zM597.73 223.08L641.03 248.08L641.03 298.08L597.73 323.08L554.43 298.08L554.43 248.08zM554.43 298.08L597.73 323.08L597.73 373.08L554.43 398.08L511.13 373.08L511.13 323.08zM641.03 -1.92L684.34 23.08L684.34 73.08L641.03 98.08L597.73 73.08L597.73 23.08zM770.94 373.08L814.25 398.08L814.25 448.08L770.94 473.08L727.64 448.08L727.64 398.08zM944.15 523.08L987.46 548.08L987.46 598.08L944.15 623.08L900.85 598.08L900.85 548.08zM1030.76 223.08L1074.06 248.08L1074.06 298.08L1030.76 323.08L987.46 298.08L987.46 248.08zM1030.76 523.08L1074.06 548.08L1074.06 598.08L1030.76 623.08L987.46 598.08L987.46 548.08zM1160.66 148.08L1203.97 173.08L1203.97 223.08L1160.66 248.08L1117.36 223.08L1117.36 173.08zM1290.57 73.08L1333.88 98.08L1333.88 148.08L1290.57 173.08L1247.27 148.08L1247.27 98.08zM1290.57 223.08L1333.88 248.08L1333.88 298.08L1290.57 323.08L1247.27 298.08L1247.27 248.08zM1377.18 373.08L1420.48 398.08L1420.48 448.08L1377.18 473.08L1333.88 448.08L1333.88 398.08zM1420.48 148.08L1463.78 173.08L1463.78 223.08L1420.48 248.08L1377.18 223.08L1377.18 173.08zM1420.48 298.08L1463.78 323.08L1463.78 373.08L1420.48 398.08L1377.18 373.08L1377.18 323.08zM1463.78 373.08L1507.09 398.08L1507.09 448.08L1463.78 473.08L1420.48 448.08L1420.48 398.08zM1420.48 448.08L1463.78 473.08L1463.78 523.08L1420.48 548.08L1377.18 523.08L1377.18 473.08z" stroke="rgba(6, 80, 156, 0.93)" stroke-width="2"></path></g><defs><mask id="SvgjsMask1044"><rect width="1400" height="560" fill="#ffffff"></rect></mask></defs></svg>